<!DOCTYPE svg>
<svg width="130" height="130" xmlns="http://www.w3.org/2000/svg">
  <path fill="#333333" d="M52.653,45.414c-1.438-0.356-2.876-0.712-4.313-1.067c0.412-1.666,0.825-3.331,1.237-4.997
    c3.109,0.77,6.22,1.54,9.33,2.31c0.637-2.574,1.273-5.147,1.911-7.721c1.598,0.396,3.195,0.791,4.792,1.187
    c-0.637,2.574-1.274,5.147-1.911,7.721c1.252,0.31,2.504,0.62,3.756,0.93c0.638-2.574,1.274-5.147,1.912-7.721
    c1.597,0.396,3.194,0.791,4.792,1.187c-0.637,2.573-1.274,5.146-1.911,7.72c0.568,0.212,1.14,0.42,1.701,0.651
    c0.562,0.231,1.114,0.484,1.655,0.759c0.542,0.275,1.072,0.571,1.588,0.893c0.516,0.322,1.016,0.668,1.484,1.055
    c0.468,0.387,0.903,0.813,1.291,1.282c0.387,0.468,0.726,0.978,0.986,1.525c0.262,0.547,0.446,1.133,0.551,1.73
    s0.129,1.208,0.115,1.816c-0.014,0.608-0.065,1.215-0.177,1.811c-0.111,0.596-0.284,1.181-0.516,1.744
    c-0.231,0.563-0.522,1.103-0.889,1.585c-0.365,0.482-0.807,0.905-1.283,1.285s-0.989,0.714-1.543,0.959
    c-0.555,0.245-1.149,0.4-1.737,0.54c0.711,0.35,1.394,0.761,2.024,1.24c0.632,0.479,1.212,1.029,1.696,1.655
    c0.484,0.628,0.872,1.332,1.115,2.083s0.341,1.549,0.347,2.344s-0.081,1.587-0.246,2.361s-0.408,1.53-0.699,2.271
    c-0.29,0.738-0.627,1.46-1.055,2.127c-0.428,0.666-0.946,1.277-1.534,1.81c-0.588,0.531-1.245,0.984-1.95,1.348
    c-0.705,0.362-1.458,0.636-2.231,0.804c-0.772,0.17-1.565,0.235-2.359,0.271c-0.793,0.037-1.586,0.042-2.378,0.01
    c-0.791-0.032-1.581-0.104-2.367-0.208s-1.567-0.241-2.351-0.364c-0.646,2.609-1.292,5.22-1.938,7.83
    c-1.598-0.396-3.195-0.791-4.793-1.187c0.651-2.632,1.303-5.264,1.954-7.895c-1.252-0.311-2.504-0.62-3.756-0.931
    c-0.651,2.632-1.303,5.264-1.954,7.895c-1.598-0.396-3.195-0.791-4.793-1.187c0.651-2.631,1.304-5.263,1.955-7.894
    c-3.122-0.774-6.245-1.547-9.367-2.32c0.804-1.807,1.606-3.613,2.41-5.42c1.114,0.276,2.229,0.552,3.344,0.828
    c0.957,0.237,1.925-0.347,2.161-1.304c1.749-7.062,3.497-14.125,5.246-21.187C54.193,46.619,53.609,45.651,52.653,45.414z
     M58.029,72.975c0.516,0.14,1.033,0.273,1.553,0.398c0.52,0.126,1.041,0.242,1.566,0.337s1.056,0.169,1.587,0.228
    c0.53,0.06,1.063,0.104,1.598,0.124c0.533,0.018,1.068,0.01,1.602-0.027s1.065-0.102,1.584-0.232
    c0.519-0.129,1.023-0.323,1.478-0.604s0.858-0.651,1.167-1.084c0.309-0.434,0.522-0.931,0.649-1.451
    c0.127-0.521,0.168-1.065,0.094-1.593c-0.073-0.526-0.263-1.035-0.531-1.498c-0.269-0.461-0.617-0.875-1.005-1.245
    c-0.387-0.369-0.814-0.695-1.269-0.976s-0.936-0.516-1.422-0.736c-0.487-0.222-0.979-0.43-1.481-0.613
    c-0.501-0.184-1.012-0.342-1.524-0.494c-0.513-0.151-1.027-0.296-1.544-0.43s-1.036-0.259-1.559-0.373
    c-0.566-0.124-1.135-0.236-1.705-0.337c-0.836,3.375-1.672,6.752-2.507,10.128C56.913,72.662,57.471,72.822,58.029,72.975z
     M61.576,57.871c0.439,0.117,0.881,0.23,1.324,0.334c0.443,0.104,0.888,0.2,1.336,0.286c0.447,0.085,0.896,0.16,1.349,0.212
    s0.907,0.083,1.362,0.088c0.455,0.004,0.91-0.019,1.363-0.073c0.452-0.055,0.902-0.141,1.332-0.292
    c0.429-0.151,0.836-0.366,1.198-0.642c0.361-0.275,0.679-0.611,0.93-0.992c0.25-0.38,0.435-0.805,0.546-1.247
    c0.11-0.442,0.148-0.902,0.109-1.355c-0.04-0.454-0.158-0.9-0.35-1.313c-0.19-0.413-0.456-0.791-0.768-1.123
    c-0.312-0.331-0.671-0.616-1.046-0.875c-0.375-0.258-0.768-0.492-1.177-0.692c-0.408-0.2-0.833-0.367-1.263-0.518
    s-0.864-0.288-1.301-0.416s-0.876-0.25-1.315-0.367c-0.44-0.117-0.881-0.23-1.324-0.333c-0.504-0.117-1.01-0.22-1.517-0.324
    c-0.762,3.078-1.523,6.155-2.286,9.233C60.579,57.6,61.076,57.738,61.576,57.871z">
  </path>
</svg>
