<!DOCTYPE svg>
<svg width="130" height="130" xmlns="http://www.w3.org/2000/svg">
  <polygon fill="#333333" points="55.254,64.162 57.814,56.313 36.933,56.313 34.373,64.162 "></polygon>
  <path fill="#333333" d="M38.438,68.701c11.721,0,23.442,0,35.163,0c1.841-5.643,3.682-11.285,5.521-16.927
    c-11.721,0-23.442,0-35.163,0c0.918-2.814,1.835-5.628,2.753-8.442c12.834,0,25.668,0,38.501,0c4.349,0,7.429,4.245,6.081,8.378
    c-1.721,5.276-3.441,10.553-5.162,15.83c-1.86,5.702-7.178,9.561-13.175,9.561c-12.419,0-24.839,0-37.258,0
    C36.611,74.301,37.524,71.501,38.438,68.701z"></path>
</svg>
