<!DOCTYPE svg>
<svg width="130" height="130" xmlns="http://www.w3.org/2000/svg">
  <path fill="#333333" d="M80.698,78.789c-2.771,4.763-8.996,6.442-13.901,3.752c-4.906-2.69-6.637-8.732-3.864-13.496
            c1.154-1.984,0.434-4.501-1.61-5.623c-2.016-1.104-4.566-0.438-5.743,1.483c-0.001,0-0.001,0-0.001,0c0-0.002,0-0.005,0-0.008
            c-0.017,0.029-0.031,0.059-0.048,0.088c-2.772,4.763-8.996,6.442-13.902,3.751c-4.906-2.689-6.637-8.733-3.864-13.494
            c2.771-4.764,8.995-6.443,13.902-3.752c1.64,0.899,2.923,2.175,3.804,3.65c0-0.002,0-0.003,0-0.005c0-0.001,0-0.001,0.001-0.001
            c1.222,1.893,3.783,2.503,5.772,1.355c2.019-1.165,2.682-3.697,1.481-5.656c-2.879-4.701-1.287-10.78,3.557-13.574
            c4.843-2.796,11.104-1.25,13.984,3.451c2.879,4.702,1.287,10.78-3.558,13.575c-1.618,0.935-3.396,1.382-5.153,1.39
            c0.001,0,0.003,0.001,0.004,0.002v0c-2.323,0.078-4.17,1.942-4.142,4.212c0.026,2.3,1.971,4.143,4.34,4.115
            c-0.005,0.003-0.01,0.006-0.015,0.009c1.728-0.015,3.481,0.396,5.092,1.279C81.739,67.984,83.471,74.027,80.698,78.789z"></path>
</svg>
